ISO-10303-21;
HEADER;
/* Generated by software containing ST-Developer
 * from STEP Tools, Inc. (www.steptools.com) 
 */

FILE_DESCRIPTION(
/* description */ (''),
/* implementation_level */ '2;1');

FILE_NAME(
/* name */ 'Aether pad.step',
/* time_stamp */ '2026-05-04T18:05:07-04:00',
/* author */ (''),
/* organization */ (''),
/* preprocessor_version */ 'ST-DEVELOPER v20.1',
/* originating_system */ 'Autodesk Translation Framework v15.8.0.0',
/* authorisation */ '');

FILE_SCHEMA (('AUTOMOTIVE_DESIGN { 1 0 10303 214 3 1 1 }'));
ENDSEC;

DATA;
#10=MECHANICAL_DESIGN_GEOMETRIC_PRESENTATION_REPRESENTATION('',(#13),#971);
#11=SHAPE_REPRESENTATION_RELATIONSHIP('SRR','None',#978,#12);
#12=ADVANCED_BREP_SHAPE_REPRESENTATION('',(#14),#970);
#13=STYLED_ITEM('',(#987),#14);
#14=MANIFOLD_SOLID_BREP('Body2',#567);
#15=CONICAL_SURFACE('',#602,0.75,1.02974425867665);
#16=CONICAL_SURFACE('',#606,0.75,1.02974425867665);
#17=CONICAL_SURFACE('',#610,0.75,1.02974425867665);
#18=CONICAL_SURFACE('',#614,0.75,1.02974425867665);
#19=FACE_BOUND('',#99,.T.);
#20=FACE_BOUND('',#100,.T.);
#21=FACE_BOUND('',#101,.T.);
#22=FACE_BOUND('',#102,.T.);
#23=FACE_BOUND('',#103,.T.);
#24=FACE_BOUND('',#115,.T.);
#25=FACE_BOUND('',#118,.T.);
#26=FACE_BOUND('',#121,.T.);
#27=FACE_BOUND('',#124,.T.);
#28=FACE_BOUND('',#132,.T.);
#29=FACE_BOUND('',#133,.T.);
#30=FACE_BOUND('',#134,.T.);
#31=FACE_BOUND('',#135,.T.);
#32=FACE_BOUND('',#136,.T.);
#33=FACE_BOUND('',#137,.T.);
#34=FACE_BOUND('',#138,.T.);
#35=FACE_BOUND('',#139,.T.);
#36=FACE_BOUND('',#140,.T.);
#37=PLANE('',#598);
#38=PLANE('',#599);
#39=PLANE('',#600);
#40=PLANE('',#623);
#41=PLANE('',#627);
#42=PLANE('',#631);
#43=PLANE('',#635);
#44=PLANE('',#636);
#45=PLANE('',#637);
#46=PLANE('',#638);
#47=PLANE('',#639);
#48=PLANE('',#640);
#49=PLANE('',#641);
#50=PLANE('',#642);
#51=ELLIPSE('',#591,1.4142135623731,1.);
#52=ELLIPSE('',#592,1.4142135623731,1.);
#53=ELLIPSE('',#594,1.4142135623731,1.);
#54=ELLIPSE('',#596,1.41421356237309,1.);
#55=FACE_OUTER_BOUND('',#89,.T.);
#56=FACE_OUTER_BOUND('',#90,.T.);
#57=FACE_OUTER_BOUND('',#91,.T.);
#58=FACE_OUTER_BOUND('',#92,.T.);
#59=FACE_OUTER_BOUND('',#93,.T.);
#60=FACE_OUTER_BOUND('',#94,.T.);
#61=FACE_OUTER_BOUND('',#95,.T.);
#62=FACE_OUTER_BOUND('',#96,.T.);
#63=FACE_OUTER_BOUND('',#97,.T.);
#64=FACE_OUTER_BOUND('',#98,.T.);
#65=FACE_OUTER_BOUND('',#104,.T.);
#66=FACE_OUTER_BOUND('',#105,.T.);
#67=FACE_OUTER_BOUND('',#106,.T.);
#68=FACE_OUTER_BOUND('',#107,.T.);
#69=FACE_OUTER_BOUND('',#108,.T.);
#70=FACE_OUTER_BOUND('',#109,.T.);
#71=FACE_OUTER_BOUND('',#110,.T.);
#72=FACE_OUTER_BOUND('',#111,.T.);
#73=FACE_OUTER_BOUND('',#112,.T.);
#74=FACE_OUTER_BOUND('',#113,.T.);
#75=FACE_OUTER_BOUND('',#114,.T.);
#76=FACE_OUTER_BOUND('',#116,.T.);
#77=FACE_OUTER_BOUND('',#117,.T.);
#78=FACE_OUTER_BOUND('',#119,.T.);
#79=FACE_OUTER_BOUND('',#120,.T.);
#80=FACE_OUTER_BOUND('',#122,.T.);
#81=FACE_OUTER_BOUND('',#123,.T.);
#82=FACE_OUTER_BOUND('',#125,.T.);
#83=FACE_OUTER_BOUND('',#126,.T.);
#84=FACE_OUTER_BOUND('',#127,.T.);
#85=FACE_OUTER_BOUND('',#128,.T.);
#86=FACE_OUTER_BOUND('',#129,.T.);
#87=FACE_OUTER_BOUND('',#130,.T.);
#88=FACE_OUTER_BOUND('',#131,.T.);
#89=EDGE_LOOP('',(#373,#374,#375,#376));
#90=EDGE_LOOP('',(#377,#378,#379,#380));
#91=EDGE_LOOP('',(#381,#382,#383,#384));
#92=EDGE_LOOP('',(#385,#386,#387,#388));
#93=EDGE_LOOP('',(#389,#390,#391,#392));
#94=EDGE_LOOP('',(#393,#394,#395,#396));
#95=EDGE_LOOP('',(#397,#398,#399,#400));
#96=EDGE_LOOP('',(#401,#402,#403,#404));
#97=EDGE_LOOP('',(#405,#406,#407,#408));
#98=EDGE_LOOP('',(#409,#410,#411,#412));
#99=EDGE_LOOP('',(#413));
#100=EDGE_LOOP('',(#414));
#101=EDGE_LOOP('',(#415));
#102=EDGE_LOOP('',(#416));
#103=EDGE_LOOP('',(#417,#418,#419,#420));
#104=EDGE_LOOP('',(#421,#422,#423));
#105=EDGE_LOOP('',(#424,#425,#426,#427));
#106=EDGE_LOOP('',(#428,#429,#430));
#107=EDGE_LOOP('',(#431,#432,#433,#434));
#108=EDGE_LOOP('',(#435,#436,#437));
#109=EDGE_LOOP('',(#438,#439,#440,#441));
#110=EDGE_LOOP('',(#442,#443,#444));
#111=EDGE_LOOP('',(#445,#446,#447,#448));
#112=EDGE_LOOP('',(#449,#450,#451,#452));
#113=EDGE_LOOP('',(#453,#454,#455,#456));
#114=EDGE_LOOP('',(#457));
#115=EDGE_LOOP('',(#458));
#116=EDGE_LOOP('',(#459,#460,#461,#462));
#117=EDGE_LOOP('',(#463));
#118=EDGE_LOOP('',(#464));
#119=EDGE_LOOP('',(#465,#466,#467,#468));
#120=EDGE_LOOP('',(#469));
#121=EDGE_LOOP('',(#470));
#122=EDGE_LOOP('',(#471,#472,#473,#474));
#123=EDGE_LOOP('',(#475));
#124=EDGE_LOOP('',(#476));
#125=EDGE_LOOP('',(#477,#478,#479,#480));
#126=EDGE_LOOP('',(#481,#482,#483,#484));
#127=EDGE_LOOP('',(#485,#486,#487,#488));
#128=EDGE_LOOP('',(#489,#490,#491,#492));
#129=EDGE_LOOP('',(#493,#494,#495,#496));
#130=EDGE_LOOP('',(#497,#498,#499,#500));
#131=EDGE_LOOP('',(#501,#502,#503,#504));
#132=EDGE_LOOP('',(#505));
#133=EDGE_LOOP('',(#506));
#134=EDGE_LOOP('',(#507));
#135=EDGE_LOOP('',(#508));
#136=EDGE_LOOP('',(#509));
#137=EDGE_LOOP('',(#510));
#138=EDGE_LOOP('',(#511));
#139=EDGE_LOOP('',(#512,#513,#514,#515));
#140=EDGE_LOOP('',(#516));
#141=LINE('',#818,#185);
#142=LINE('',#824,#186);
#143=LINE('',#830,#187);
#144=LINE('',#835,#188);
#145=LINE('',#839,#189);
#146=LINE('',#843,#190);
#147=LINE('',#846,#191);
#148=LINE('',#849,#192);
#149=LINE('',#852,#193);
#150=LINE('',#854,#194);
#151=LINE('',#855,#195);
#152=LINE('',#858,#196);
#153=LINE('',#860,#197);
#154=LINE('',#861,#198);
#155=LINE('',#864,#199);
#156=LINE('',#865,#200);
#157=LINE('',#869,#201);
#158=LINE('',#871,#202);
#159=LINE('',#873,#203);
#160=LINE('',#874,#204);
#161=LINE('',#881,#205);
#162=LINE('',#885,#206);
#163=LINE('',#890,#207);
#164=LINE('',#894,#208);
#165=LINE('',#899,#209);
#166=LINE('',#903,#210);
#167=LINE('',#908,#211);
#168=LINE('',#912,#212);
#169=LINE('',#916,#213);
#170=LINE('',#921,#214);
#171=LINE('',#928,#215);
#172=LINE('',#935,#216);
#173=LINE('',#942,#217);
#174=LINE('',#947,#218);
#175=LINE('',#948,#219);
#176=LINE('',#950,#220);
#177=LINE('',#954,#221);
#178=LINE('',#955,#222);
#179=LINE('',#956,#223);
#180=LINE('',#959,#224);
#181=LINE('',#960,#225);
#182=LINE('',#963,#226);
#183=LINE('',#964,#227);
#184=LINE('',#966,#228);
#185=VECTOR('',#649,1.5);
#186=VECTOR('',#656,1.5);
#187=VECTOR('',#663,1.5);
#188=VECTOR('',#668,10.);
#189=VECTOR('',#671,10.);
#190=VECTOR('',#676,10.);
#191=VECTOR('',#679,10.);
#192=VECTOR('',#682,10.);
#193=VECTOR('',#685,10.);
#194=VECTOR('',#688,10.);
#195=VECTOR('',#689,10.);
#196=VECTOR('',#692,10.);
#197=VECTOR('',#693,10.);
#198=VECTOR('',#694,10.);
#199=VECTOR('',#697,10.);
#200=VECTOR('',#698,10.);
#201=VECTOR('',#701,10.);
#202=VECTOR('',#702,10.);
#203=VECTOR('',#703,10.);
#204=VECTOR('',#704,10.);
#205=VECTOR('',#711,0.75);
#206=VECTOR('',#716,1.5);
#207=VECTOR('',#721,0.75);
#208=VECTOR('',#726,1.5);
#209=VECTOR('',#731,0.75);
#210=VECTOR('',#736,1.5);
#211=VECTOR('',#741,0.75);
#212=VECTOR('',#746,1.5);
#213=VECTOR('',#751,10.);
#214=VECTOR('',#756,3.00000000000001);
#215=VECTOR('',#765,2.99999999999999);
#216=VECTOR('',#774,2.99999999999999);
#217=VECTOR('',#783,2.99999999999999);
#218=VECTOR('',#790,10.);
#219=VECTOR('',#791,10.);
#220=VECTOR('',#794,10.);
#221=VECTOR('',#797,10.);
#222=VECTOR('',#798,10.);
#223=VECTOR('',#799,10.);
#224=VECTOR('',#802,10.);
#225=VECTOR('',#803,10.);
#226=VECTOR('',#806,10.);
#227=VECTOR('',#807,10.);
#228=VECTOR('',#810,10.);
#229=CIRCLE('',#582,1.5);
#230=CIRCLE('',#583,1.5);
#231=CIRCLE('',#585,1.5);
#232=CIRCLE('',#586,1.5);
#233=CIRCLE('',#588,1.5);
#234=CIRCLE('',#589,1.5);
#235=CIRCLE('',#601,10.);
#236=CIRCLE('',#603,1.5);
#237=CIRCLE('',#605,1.5);
#238=CIRCLE('',#607,1.5);
#239=CIRCLE('',#609,1.5);
#240=CIRCLE('',#611,1.5);
#241=CIRCLE('',#613,1.5);
#242=CIRCLE('',#615,1.5);
#243=CIRCLE('',#617,1.5);
#244=CIRCLE('',#619,10.);
#245=CIRCLE('',#621,3.00000000000001);
#246=CIRCLE('',#622,3.00000000000001);
#247=CIRCLE('',#625,2.99999999999999);
#248=CIRCLE('',#626,2.99999999999999);
#249=CIRCLE('',#629,2.99999999999999);
#250=CIRCLE('',#630,2.99999999999999);
#251=CIRCLE('',#633,2.99999999999999);
#252=CIRCLE('',#634,2.99999999999999);
#253=VERTEX_POINT('',#815);
#254=VERTEX_POINT('',#817);
#255=VERTEX_POINT('',#821);
#256=VERTEX_POINT('',#823);
#257=VERTEX_POINT('',#827);
#258=VERTEX_POINT('',#829);
#259=VERTEX_POINT('',#833);
#260=VERTEX_POINT('',#834);
#261=VERTEX_POINT('',#836);
#262=VERTEX_POINT('',#838);
#263=VERTEX_POINT('',#842);
#264=VERTEX_POINT('',#844);
#265=VERTEX_POINT('',#848);
#266=VERTEX_POINT('',#850);
#267=VERTEX_POINT('',#857);
#268=VERTEX_POINT('',#859);
#269=VERTEX_POINT('',#863);
#270=VERTEX_POINT('',#867);
#271=VERTEX_POINT('',#868);
#272=VERTEX_POINT('',#870);
#273=VERTEX_POINT('',#872);
#274=VERTEX_POINT('',#875);
#275=VERTEX_POINT('',#878);
#276=VERTEX_POINT('',#880);
#277=VERTEX_POINT('',#883);
#278=VERTEX_POINT('',#887);
#279=VERTEX_POINT('',#889);
#280=VERTEX_POINT('',#892);
#281=VERTEX_POINT('',#896);
#282=VERTEX_POINT('',#898);
#283=VERTEX_POINT('',#901);
#284=VERTEX_POINT('',#905);
#285=VERTEX_POINT('',#907);
#286=VERTEX_POINT('',#910);
#287=VERTEX_POINT('',#914);
#288=VERTEX_POINT('',#918);
#289=VERTEX_POINT('',#920);
#290=VERTEX_POINT('',#925);
#291=VERTEX_POINT('',#927);
#292=VERTEX_POINT('',#932);
#293=VERTEX_POINT('',#934);
#294=VERTEX_POINT('',#939);
#295=VERTEX_POINT('',#941);
#296=VERTEX_POINT('',#946);
#297=VERTEX_POINT('',#952);
#298=VERTEX_POINT('',#953);
#299=VERTEX_POINT('',#958);
#300=VERTEX_POINT('',#962);
#301=EDGE_CURVE('',#253,#253,#229,.T.);
#302=EDGE_CURVE('',#253,#254,#141,.T.);
#303=EDGE_CURVE('',#254,#254,#230,.T.);
#304=EDGE_CURVE('',#255,#255,#231,.T.);
#305=EDGE_CURVE('',#255,#256,#142,.T.);
#306=EDGE_CURVE('',#256,#256,#232,.T.);
#307=EDGE_CURVE('',#257,#257,#233,.T.);
#308=EDGE_CURVE('',#257,#258,#143,.T.);
#309=EDGE_CURVE('',#258,#258,#234,.T.);
#310=EDGE_CURVE('',#259,#260,#144,.T.);
#311=EDGE_CURVE('',#260,#261,#51,.T.);
#312=EDGE_CURVE('',#261,#262,#145,.T.);
#313=EDGE_CURVE('',#259,#262,#52,.T.);
#314=EDGE_CURVE('',#260,#263,#146,.T.);
#315=EDGE_CURVE('',#263,#264,#53,.T.);
#316=EDGE_CURVE('',#264,#261,#147,.T.);
#317=EDGE_CURVE('',#263,#265,#148,.T.);
#318=EDGE_CURVE('',#265,#266,#54,.T.);
#319=EDGE_CURVE('',#266,#264,#149,.T.);
#320=EDGE_CURVE('',#262,#266,#150,.T.);
#321=EDGE_CURVE('',#265,#259,#151,.T.);
#322=EDGE_CURVE('',#267,#262,#152,.T.);
#323=EDGE_CURVE('',#267,#268,#153,.T.);
#324=EDGE_CURVE('',#268,#266,#154,.T.);
#325=EDGE_CURVE('',#269,#261,#155,.T.);
#326=EDGE_CURVE('',#269,#267,#156,.T.);
#327=EDGE_CURVE('',#270,#271,#157,.T.);
#328=EDGE_CURVE('',#271,#272,#158,.T.);
#329=EDGE_CURVE('',#272,#273,#159,.T.);
#330=EDGE_CURVE('',#273,#270,#160,.T.);
#331=EDGE_CURVE('',#274,#274,#235,.T.);
#332=EDGE_CURVE('',#275,#275,#236,.T.);
#333=EDGE_CURVE('',#275,#276,#161,.T.);
#334=EDGE_CURVE('',#277,#277,#237,.T.);
#335=EDGE_CURVE('',#277,#275,#162,.T.);
#336=EDGE_CURVE('',#278,#278,#238,.T.);
#337=EDGE_CURVE('',#278,#279,#163,.T.);
#338=EDGE_CURVE('',#280,#280,#239,.T.);
#339=EDGE_CURVE('',#280,#278,#164,.T.);
#340=EDGE_CURVE('',#281,#281,#240,.T.);
#341=EDGE_CURVE('',#281,#282,#165,.T.);
#342=EDGE_CURVE('',#283,#283,#241,.T.);
#343=EDGE_CURVE('',#283,#281,#166,.T.);
#344=EDGE_CURVE('',#284,#284,#242,.T.);
#345=EDGE_CURVE('',#284,#285,#167,.T.);
#346=EDGE_CURVE('',#286,#286,#243,.T.);
#347=EDGE_CURVE('',#286,#284,#168,.T.);
#348=EDGE_CURVE('',#287,#287,#244,.T.);
#349=EDGE_CURVE('',#287,#274,#169,.T.);
#350=EDGE_CURVE('',#288,#288,#245,.T.);
#351=EDGE_CURVE('',#288,#289,#170,.T.);
#352=EDGE_CURVE('',#289,#289,#246,.T.);
#353=EDGE_CURVE('',#290,#290,#247,.T.);
#354=EDGE_CURVE('',#290,#291,#171,.T.);
#355=EDGE_CURVE('',#291,#291,#248,.T.);
#356=EDGE_CURVE('',#292,#292,#249,.T.);
#357=EDGE_CURVE('',#292,#293,#172,.T.);
#358=EDGE_CURVE('',#293,#293,#250,.T.);
#359=EDGE_CURVE('',#294,#294,#251,.T.);
#360=EDGE_CURVE('',#294,#295,#173,.T.);
#361=EDGE_CURVE('',#295,#295,#252,.T.);
#362=EDGE_CURVE('',#296,#264,#174,.T.);
#363=EDGE_CURVE('',#296,#269,#175,.T.);
#364=EDGE_CURVE('',#268,#296,#176,.T.);
#365=EDGE_CURVE('',#297,#298,#177,.T.);
#366=EDGE_CURVE('',#298,#270,#178,.T.);
#367=EDGE_CURVE('',#297,#273,#179,.T.);
#368=EDGE_CURVE('',#299,#297,#180,.T.);
#369=EDGE_CURVE('',#299,#272,#181,.T.);
#370=EDGE_CURVE('',#300,#299,#182,.T.);
#371=EDGE_CURVE('',#300,#271,#183,.T.);
#372=EDGE_CURVE('',#298,#300,#184,.T.);
#373=ORIENTED_EDGE('',*,*,#301,.F.);
#374=ORIENTED_EDGE('',*,*,#302,.T.);
#375=ORIENTED_EDGE('',*,*,#303,.F.);
#376=ORIENTED_EDGE('',*,*,#302,.F.);
#377=ORIENTED_EDGE('',*,*,#304,.F.);
#378=ORIENTED_EDGE('',*,*,#305,.T.);
#379=ORIENTED_EDGE('',*,*,#306,.F.);
#380=ORIENTED_EDGE('',*,*,#305,.F.);
#381=ORIENTED_EDGE('',*,*,#307,.F.);
#382=ORIENTED_EDGE('',*,*,#308,.T.);
#383=ORIENTED_EDGE('',*,*,#309,.F.);
#384=ORIENTED_EDGE('',*,*,#308,.F.);
#385=ORIENTED_EDGE('',*,*,#310,.T.);
#386=ORIENTED_EDGE('',*,*,#311,.T.);
#387=ORIENTED_EDGE('',*,*,#312,.T.);
#388=ORIENTED_EDGE('',*,*,#313,.F.);
#389=ORIENTED_EDGE('',*,*,#314,.T.);
#390=ORIENTED_EDGE('',*,*,#315,.T.);
#391=ORIENTED_EDGE('',*,*,#316,.T.);
#392=ORIENTED_EDGE('',*,*,#311,.F.);
#393=ORIENTED_EDGE('',*,*,#317,.T.);
#394=ORIENTED_EDGE('',*,*,#318,.T.);
#395=ORIENTED_EDGE('',*,*,#319,.T.);
#396=ORIENTED_EDGE('',*,*,#315,.F.);
#397=ORIENTED_EDGE('',*,*,#320,.T.);
#398=ORIENTED_EDGE('',*,*,#318,.F.);
#399=ORIENTED_EDGE('',*,*,#321,.T.);
#400=ORIENTED_EDGE('',*,*,#313,.T.);
#401=ORIENTED_EDGE('',*,*,#320,.F.);
#402=ORIENTED_EDGE('',*,*,#322,.F.);
#403=ORIENTED_EDGE('',*,*,#323,.T.);
#404=ORIENTED_EDGE('',*,*,#324,.T.);
#405=ORIENTED_EDGE('',*,*,#312,.F.);
#406=ORIENTED_EDGE('',*,*,#325,.F.);
#407=ORIENTED_EDGE('',*,*,#326,.T.);
#408=ORIENTED_EDGE('',*,*,#322,.T.);
#409=ORIENTED_EDGE('',*,*,#327,.T.);
#410=ORIENTED_EDGE('',*,*,#328,.T.);
#411=ORIENTED_EDGE('',*,*,#329,.T.);
#412=ORIENTED_EDGE('',*,*,#330,.T.);
#413=ORIENTED_EDGE('',*,*,#303,.T.);
#414=ORIENTED_EDGE('',*,*,#306,.T.);
#415=ORIENTED_EDGE('',*,*,#309,.T.);
#416=ORIENTED_EDGE('',*,*,#331,.T.);
#417=ORIENTED_EDGE('',*,*,#310,.F.);
#418=ORIENTED_EDGE('',*,*,#321,.F.);
#419=ORIENTED_EDGE('',*,*,#317,.F.);
#420=ORIENTED_EDGE('',*,*,#314,.F.);
#421=ORIENTED_EDGE('',*,*,#332,.F.);
#422=ORIENTED_EDGE('',*,*,#333,.T.);
#423=ORIENTED_EDGE('',*,*,#333,.F.);
#424=ORIENTED_EDGE('',*,*,#334,.F.);
#425=ORIENTED_EDGE('',*,*,#335,.T.);
#426=ORIENTED_EDGE('',*,*,#332,.T.);
#427=ORIENTED_EDGE('',*,*,#335,.F.);
#428=ORIENTED_EDGE('',*,*,#336,.F.);
#429=ORIENTED_EDGE('',*,*,#337,.T.);
#430=ORIENTED_EDGE('',*,*,#337,.F.);
#431=ORIENTED_EDGE('',*,*,#338,.F.);
#432=ORIENTED_EDGE('',*,*,#339,.T.);
#433=ORIENTED_EDGE('',*,*,#336,.T.);
#434=ORIENTED_EDGE('',*,*,#339,.F.);
#435=ORIENTED_EDGE('',*,*,#340,.F.);
#436=ORIENTED_EDGE('',*,*,#341,.T.);
#437=ORIENTED_EDGE('',*,*,#341,.F.);
#438=ORIENTED_EDGE('',*,*,#342,.F.);
#439=ORIENTED_EDGE('',*,*,#343,.T.);
#440=ORIENTED_EDGE('',*,*,#340,.T.);
#441=ORIENTED_EDGE('',*,*,#343,.F.);
#442=ORIENTED_EDGE('',*,*,#344,.F.);
#443=ORIENTED_EDGE('',*,*,#345,.T.);
#444=ORIENTED_EDGE('',*,*,#345,.F.);
#445=ORIENTED_EDGE('',*,*,#346,.F.);
#446=ORIENTED_EDGE('',*,*,#347,.T.);
#447=ORIENTED_EDGE('',*,*,#344,.T.);
#448=ORIENTED_EDGE('',*,*,#347,.F.);
#449=ORIENTED_EDGE('',*,*,#348,.F.);
#450=ORIENTED_EDGE('',*,*,#349,.T.);
#451=ORIENTED_EDGE('',*,*,#331,.F.);
#452=ORIENTED_EDGE('',*,*,#349,.F.);
#453=ORIENTED_EDGE('',*,*,#350,.F.);
#454=ORIENTED_EDGE('',*,*,#351,.T.);
#455=ORIENTED_EDGE('',*,*,#352,.F.);
#456=ORIENTED_EDGE('',*,*,#351,.F.);
#457=ORIENTED_EDGE('',*,*,#350,.T.);
#458=ORIENTED_EDGE('',*,*,#342,.T.);
#459=ORIENTED_EDGE('',*,*,#353,.F.);
#460=ORIENTED_EDGE('',*,*,#354,.T.);
#461=ORIENTED_EDGE('',*,*,#355,.F.);
#462=ORIENTED_EDGE('',*,*,#354,.F.);
#463=ORIENTED_EDGE('',*,*,#353,.T.);
#464=ORIENTED_EDGE('',*,*,#346,.T.);
#465=ORIENTED_EDGE('',*,*,#356,.F.);
#466=ORIENTED_EDGE('',*,*,#357,.T.);
#467=ORIENTED_EDGE('',*,*,#358,.F.);
#468=ORIENTED_EDGE('',*,*,#357,.F.);
#469=ORIENTED_EDGE('',*,*,#356,.T.);
#470=ORIENTED_EDGE('',*,*,#338,.T.);
#471=ORIENTED_EDGE('',*,*,#359,.F.);
#472=ORIENTED_EDGE('',*,*,#360,.T.);
#473=ORIENTED_EDGE('',*,*,#361,.F.);
#474=ORIENTED_EDGE('',*,*,#360,.F.);
#475=ORIENTED_EDGE('',*,*,#359,.T.);
#476=ORIENTED_EDGE('',*,*,#334,.T.);
#477=ORIENTED_EDGE('',*,*,#316,.F.);
#478=ORIENTED_EDGE('',*,*,#362,.F.);
#479=ORIENTED_EDGE('',*,*,#363,.T.);
#480=ORIENTED_EDGE('',*,*,#325,.T.);
#481=ORIENTED_EDGE('',*,*,#319,.F.);
#482=ORIENTED_EDGE('',*,*,#324,.F.);
#483=ORIENTED_EDGE('',*,*,#364,.T.);
#484=ORIENTED_EDGE('',*,*,#362,.T.);
#485=ORIENTED_EDGE('',*,*,#365,.T.);
#486=ORIENTED_EDGE('',*,*,#366,.T.);
#487=ORIENTED_EDGE('',*,*,#330,.F.);
#488=ORIENTED_EDGE('',*,*,#367,.F.);
#489=ORIENTED_EDGE('',*,*,#368,.T.);
#490=ORIENTED_EDGE('',*,*,#367,.T.);
#491=ORIENTED_EDGE('',*,*,#329,.F.);
#492=ORIENTED_EDGE('',*,*,#369,.F.);
#493=ORIENTED_EDGE('',*,*,#370,.T.);
#494=ORIENTED_EDGE('',*,*,#369,.T.);
#495=ORIENTED_EDGE('',*,*,#328,.F.);
#496=ORIENTED_EDGE('',*,*,#371,.F.);
#497=ORIENTED_EDGE('',*,*,#372,.T.);
#498=ORIENTED_EDGE('',*,*,#371,.T.);
#499=ORIENTED_EDGE('',*,*,#327,.F.);
#500=ORIENTED_EDGE('',*,*,#366,.F.);
#501=ORIENTED_EDGE('',*,*,#372,.F.);
#502=ORIENTED_EDGE('',*,*,#365,.F.);
#503=ORIENTED_EDGE('',*,*,#368,.F.);
#504=ORIENTED_EDGE('',*,*,#370,.F.);
#505=ORIENTED_EDGE('',*,*,#304,.T.);
#506=ORIENTED_EDGE('',*,*,#307,.T.);
#507=ORIENTED_EDGE('',*,*,#348,.T.);
#508=ORIENTED_EDGE('',*,*,#352,.T.);
#509=ORIENTED_EDGE('',*,*,#355,.T.);
#510=ORIENTED_EDGE('',*,*,#358,.T.);
#511=ORIENTED_EDGE('',*,*,#361,.T.);
#512=ORIENTED_EDGE('',*,*,#364,.F.);
#513=ORIENTED_EDGE('',*,*,#323,.F.);
#514=ORIENTED_EDGE('',*,*,#326,.F.);
#515=ORIENTED_EDGE('',*,*,#363,.F.);
#516=ORIENTED_EDGE('',*,*,#301,.T.);
#517=CYLINDRICAL_SURFACE('',#581,1.5);
#518=CYLINDRICAL_SURFACE('',#584,1.5);
#519=CYLINDRICAL_SURFACE('',#587,1.5);
#520=CYLINDRICAL_SURFACE('',#590,1.);
#521=CYLINDRICAL_SURFACE('',#593,1.);
#522=CYLINDRICAL_SURFACE('',#595,1.);
#523=CYLINDRICAL_SURFACE('',#597,1.);
#524=CYLINDRICAL_SURFACE('',#604,1.5);
#525=CYLINDRICAL_SURFACE('',#608,1.5);
#526=CYLINDRICAL_SURFACE('',#612,1.5);
#527=CYLINDRICAL_SURFACE('',#616,1.5);
#528=CYLINDRICAL_SURFACE('',#618,10.);
#529=CYLINDRICAL_SURFACE('',#620,3.00000000000001);
#530=CYLINDRICAL_SURFACE('',#624,2.99999999999999);
#531=CYLINDRICAL_SURFACE('',#628,2.99999999999999);
#532=CYLINDRICAL_SURFACE('',#632,2.99999999999999);
#533=ADVANCED_FACE('',(#55),#517,.F.);
#534=ADVANCED_FACE('',(#56),#518,.F.);
#535=ADVANCED_FACE('',(#57),#519,.F.);
#536=ADVANCED_FACE('',(#58),#520,.T.);
#537=ADVANCED_FACE('',(#59),#521,.T.);
#538=ADVANCED_FACE('',(#60),#522,.T.);
#539=ADVANCED_FACE('',(#61),#523,.T.);
#540=ADVANCED_FACE('',(#62),#37,.T.);
#541=ADVANCED_FACE('',(#63),#38,.T.);
#542=ADVANCED_FACE('',(#64,#19,#20,#21,#22,#23),#39,.T.);
#543=ADVANCED_FACE('',(#65),#15,.F.);
#544=ADVANCED_FACE('',(#66),#524,.F.);
#545=ADVANCED_FACE('',(#67),#16,.F.);
#546=ADVANCED_FACE('',(#68),#525,.F.);
#547=ADVANCED_FACE('',(#69),#17,.F.);
#548=ADVANCED_FACE('',(#70),#526,.F.);
#549=ADVANCED_FACE('',(#71),#18,.F.);
#550=ADVANCED_FACE('',(#72),#527,.F.);
#551=ADVANCED_FACE('',(#73),#528,.F.);
#552=ADVANCED_FACE('',(#74),#529,.T.);
#553=ADVANCED_FACE('',(#75,#24),#40,.F.);
#554=ADVANCED_FACE('',(#76),#530,.T.);
#555=ADVANCED_FACE('',(#77,#25),#41,.F.);
#556=ADVANCED_FACE('',(#78),#531,.T.);
#557=ADVANCED_FACE('',(#79,#26),#42,.F.);
#558=ADVANCED_FACE('',(#80),#532,.T.);
#559=ADVANCED_FACE('',(#81,#27),#43,.F.);
#560=ADVANCED_FACE('',(#82),#44,.T.);
#561=ADVANCED_FACE('',(#83),#45,.T.);
#562=ADVANCED_FACE('',(#84),#46,.T.);
#563=ADVANCED_FACE('',(#85),#47,.T.);
#564=ADVANCED_FACE('',(#86),#48,.T.);
#565=ADVANCED_FACE('',(#87),#49,.T.);
#566=ADVANCED_FACE('',(#88,#28,#29,#30,#31,#32,#33,#34,#35,#36),#50,.F.);
#567=CLOSED_SHELL('',(#533,#534,#535,#536,#537,#538,#539,#540,#541,#542,
#543,#544,#545,#546,#547,#548,#549,#550,#551,#552,#553,#554,#555,#556,#557,
#558,#559,#560,#561,#562,#563,#564,#565,#566));
#568=DERIVED_UNIT_ELEMENT(#570,1.);
#569=DERIVED_UNIT_ELEMENT(#973,-3.);
#570=(
MASS_UNIT()
NAMED_UNIT(*)
SI_UNIT(.KILO.,.GRAM.)
);
#571=DERIVED_UNIT((#568,#569));
#572=MEASURE_REPRESENTATION_ITEM('density measure',
POSITIVE_RATIO_MEASURE(7850.),#571);
#573=PROPERTY_DEFINITION_REPRESENTATION(#578,#575);
#574=PROPERTY_DEFINITION_REPRESENTATION(#579,#576);
#575=REPRESENTATION('material name',(#577),#970);
#576=REPRESENTATION('density',(#572),#970);
#577=DESCRIPTIVE_REPRESENTATION_ITEM('Steel','Steel');
#578=PROPERTY_DEFINITION('material property','material name',#980);
#579=PROPERTY_DEFINITION('material property','density of part',#980);
#580=AXIS2_PLACEMENT_3D('',#813,#643,#644);
#581=AXIS2_PLACEMENT_3D('',#814,#645,#646);
#582=AXIS2_PLACEMENT_3D('',#816,#647,#648);
#583=AXIS2_PLACEMENT_3D('',#819,#650,#651);
#584=AXIS2_PLACEMENT_3D('',#820,#652,#653);
#585=AXIS2_PLACEMENT_3D('',#822,#654,#655);
#586=AXIS2_PLACEMENT_3D('',#825,#657,#658);
#587=AXIS2_PLACEMENT_3D('',#826,#659,#660);
#588=AXIS2_PLACEMENT_3D('',#828,#661,#662);
#589=AXIS2_PLACEMENT_3D('',#831,#664,#665);
#590=AXIS2_PLACEMENT_3D('',#832,#666,#667);
#591=AXIS2_PLACEMENT_3D('',#837,#669,#670);
#592=AXIS2_PLACEMENT_3D('',#840,#672,#673);
#593=AXIS2_PLACEMENT_3D('',#841,#674,#675);
#594=AXIS2_PLACEMENT_3D('',#845,#677,#678);
#595=AXIS2_PLACEMENT_3D('',#847,#680,#681);
#596=AXIS2_PLACEMENT_3D('',#851,#683,#684);
#597=AXIS2_PLACEMENT_3D('',#853,#686,#687);
#598=AXIS2_PLACEMENT_3D('',#856,#690,#691);
#599=AXIS2_PLACEMENT_3D('',#862,#695,#696);
#600=AXIS2_PLACEMENT_3D('',#866,#699,#700);
#601=AXIS2_PLACEMENT_3D('',#876,#705,#706);
#602=AXIS2_PLACEMENT_3D('',#877,#707,#708);
#603=AXIS2_PLACEMENT_3D('',#879,#709,#710);
#604=AXIS2_PLACEMENT_3D('',#882,#712,#713);
#605=AXIS2_PLACEMENT_3D('',#884,#714,#715);
#606=AXIS2_PLACEMENT_3D('',#886,#717,#718);
#607=AXIS2_PLACEMENT_3D('',#888,#719,#720);
#608=AXIS2_PLACEMENT_3D('',#891,#722,#723);
#609=AXIS2_PLACEMENT_3D('',#893,#724,#725);
#610=AXIS2_PLACEMENT_3D('',#895,#727,#728);
#611=AXIS2_PLACEMENT_3D('',#897,#729,#730);
#612=AXIS2_PLACEMENT_3D('',#900,#732,#733);
#613=AXIS2_PLACEMENT_3D('',#902,#734,#735);
#614=AXIS2_PLACEMENT_3D('',#904,#737,#738);
#615=AXIS2_PLACEMENT_3D('',#906,#739,#740);
#616=AXIS2_PLACEMENT_3D('',#909,#742,#743);
#617=AXIS2_PLACEMENT_3D('',#911,#744,#745);
#618=AXIS2_PLACEMENT_3D('',#913,#747,#748);
#619=AXIS2_PLACEMENT_3D('',#915,#749,#750);
#620=AXIS2_PLACEMENT_3D('',#917,#752,#753);
#621=AXIS2_PLACEMENT_3D('',#919,#754,#755);
#622=AXIS2_PLACEMENT_3D('',#922,#757,#758);
#623=AXIS2_PLACEMENT_3D('',#923,#759,#760);
#624=AXIS2_PLACEMENT_3D('',#924,#761,#762);
#625=AXIS2_PLACEMENT_3D('',#926,#763,#764);
#626=AXIS2_PLACEMENT_3D('',#929,#766,#767);
#627=AXIS2_PLACEMENT_3D('',#930,#768,#769);
#628=AXIS2_PLACEMENT_3D('',#931,#770,#771);
#629=AXIS2_PLACEMENT_3D('',#933,#772,#773);
#630=AXIS2_PLACEMENT_3D('',#936,#775,#776);
#631=AXIS2_PLACEMENT_3D('',#937,#777,#778);
#632=AXIS2_PLACEMENT_3D('',#938,#779,#780);
#633=AXIS2_PLACEMENT_3D('',#940,#781,#782);
#634=AXIS2_PLACEMENT_3D('',#943,#784,#785);
#635=AXIS2_PLACEMENT_3D('',#944,#786,#787);
#636=AXIS2_PLACEMENT_3D('',#945,#788,#789);
#637=AXIS2_PLACEMENT_3D('',#949,#792,#793);
#638=AXIS2_PLACEMENT_3D('',#951,#795,#796);
#639=AXIS2_PLACEMENT_3D('',#957,#800,#801);
#640=AXIS2_PLACEMENT_3D('',#961,#804,#805);
#641=AXIS2_PLACEMENT_3D('',#965,#808,#809);
#642=AXIS2_PLACEMENT_3D('',#967,#811,#812);
#643=DIRECTION('axis',(0.,0.,1.));
#644=DIRECTION('refdir',(1.,0.,0.));
#645=DIRECTION('center_axis',(0.,0.,1.));
#646=DIRECTION('ref_axis',(-1.,0.,0.));
#647=DIRECTION('center_axis',(0.,0.,1.));
#648=DIRECTION('ref_axis',(-1.,0.,0.));
#649=DIRECTION('',(0.,0.,1.));
#650=DIRECTION('center_axis',(0.,0.,-1.));
#651=DIRECTION('ref_axis',(-1.,0.,0.));
#652=DIRECTION('center_axis',(0.,0.,1.));
#653=DIRECTION('ref_axis',(-1.,0.,0.));
#654=DIRECTION('center_axis',(0.,0.,1.));
#655=DIRECTION('ref_axis',(-1.,0.,0.));
#656=DIRECTION('',(0.,0.,1.));
#657=DIRECTION('center_axis',(0.,0.,-1.));
#658=DIRECTION('ref_axis',(-1.,0.,0.));
#659=DIRECTION('center_axis',(0.,0.,1.));
#660=DIRECTION('ref_axis',(-1.,0.,0.));
#661=DIRECTION('center_axis',(0.,0.,1.));
#662=DIRECTION('ref_axis',(-1.,0.,0.));
#663=DIRECTION('',(0.,0.,1.));
#664=DIRECTION('center_axis',(0.,0.,-1.));
#665=DIRECTION('ref_axis',(-1.,0.,0.));
#666=DIRECTION('center_axis',(1.,0.,0.));
#667=DIRECTION('ref_axis',(0.,-0.707106781186546,0.707106781186549));
#668=DIRECTION('',(-1.,0.,0.));
#669=DIRECTION('center_axis',(0.707106781186548,0.707106781186548,0.));
#670=DIRECTION('ref_axis',(-0.707106781186547,0.707106781186547,0.));
#671=DIRECTION('',(1.,0.,0.));
#672=DIRECTION('center_axis',(0.707106781186548,-0.707106781186548,0.));
#673=DIRECTION('ref_axis',(0.707106781186547,0.707106781186547,0.));
#674=DIRECTION('center_axis',(0.,1.,0.));
#675=DIRECTION('ref_axis',(0.707106781186546,0.,0.707106781186549));
#676=DIRECTION('',(0.,-1.,0.));
#677=DIRECTION('center_axis',(-0.707106781186549,0.707106781186546,0.));
#678=DIRECTION('ref_axis',(-0.707106781186546,-0.707106781186549,0.));
#679=DIRECTION('',(0.,1.,0.));
#680=DIRECTION('center_axis',(-1.,0.,0.));
#681=DIRECTION('ref_axis',(0.,0.707106781186548,0.707106781186547));
#682=DIRECTION('',(1.,0.,0.));
#683=DIRECTION('center_axis',(-0.707106781186549,-0.707106781186546,-3.14018491736754E-15));
#684=DIRECTION('ref_axis',(0.707106781186546,-0.707106781186549,-3.14018491736756E-15));
#685=DIRECTION('',(-1.,0.,0.));
#686=DIRECTION('center_axis',(0.,-1.,0.));
#687=DIRECTION('ref_axis',(-0.70710678118654,0.,0.707106781186555));
#688=DIRECTION('',(0.,-1.,0.));
#689=DIRECTION('',(0.,1.,0.));
#690=DIRECTION('center_axis',(-1.,0.,0.));
#691=DIRECTION('ref_axis',(0.,-1.,0.));
#692=DIRECTION('',(0.,0.,1.));
#693=DIRECTION('',(0.,-1.,0.));
#694=DIRECTION('',(0.,0.,1.));
#695=DIRECTION('center_axis',(0.,-1.,0.));
#696=DIRECTION('ref_axis',(1.,0.,0.));
#697=DIRECTION('',(0.,0.,1.));
#698=DIRECTION('',(1.,0.,0.));
#699=DIRECTION('center_axis',(0.,0.,1.));
#700=DIRECTION('ref_axis',(1.,0.,0.));
#701=DIRECTION('',(0.,-1.,0.));
#702=DIRECTION('',(1.,-3.73513686184191E-34,0.));
#703=DIRECTION('',(0.,1.,0.));
#704=DIRECTION('',(-1.,0.,0.));
#705=DIRECTION('center_axis',(0.,0.,-1.));
#706=DIRECTION('ref_axis',(1.,0.,0.));
#707=DIRECTION('center_axis',(0.,0.,-1.));
#708=DIRECTION('ref_axis',(-1.,0.,0.));
#709=DIRECTION('center_axis',(0.,0.,1.));
#710=DIRECTION('ref_axis',(-1.,0.,0.));
#711=DIRECTION('',(-0.857167300702112,-1.04972719113862E-16,0.515038074910054));
#712=DIRECTION('center_axis',(0.,0.,1.));
#713=DIRECTION('ref_axis',(-1.,0.,0.));
#714=DIRECTION('center_axis',(0.,0.,1.));
#715=DIRECTION('ref_axis',(-1.,0.,0.));
#716=DIRECTION('',(0.,0.,1.));
#717=DIRECTION('center_axis',(0.,0.,-1.));
#718=DIRECTION('ref_axis',(-1.,0.,0.));
#719=DIRECTION('center_axis',(0.,0.,1.));
#720=DIRECTION('ref_axis',(-1.,0.,0.));
#721=DIRECTION('',(-0.857167300702112,-1.04972719113862E-16,0.515038074910054));
#722=DIRECTION('center_axis',(0.,0.,1.));
#723=DIRECTION('ref_axis',(-1.,0.,0.));
#724=DIRECTION('center_axis',(0.,0.,1.));
#725=DIRECTION('ref_axis',(-1.,0.,0.));
#726=DIRECTION('',(0.,0.,1.));
#727=DIRECTION('center_axis',(0.,0.,-1.));
#728=DIRECTION('ref_axis',(-1.,0.,0.));
#729=DIRECTION('center_axis',(0.,0.,1.));
#730=DIRECTION('ref_axis',(-1.,0.,0.));
#731=DIRECTION('',(-0.857167300702112,-1.04972719113862E-16,0.515038074910054));
#732=DIRECTION('center_axis',(0.,0.,1.));
#733=DIRECTION('ref_axis',(-1.,0.,0.));
#734=DIRECTION('center_axis',(0.,0.,1.));
#735=DIRECTION('ref_axis',(-1.,0.,0.));
#736=DIRECTION('',(0.,0.,1.));
#737=DIRECTION('center_axis',(0.,0.,-1.));
#738=DIRECTION('ref_axis',(-1.,0.,0.));
#739=DIRECTION('center_axis',(0.,0.,1.));
#740=DIRECTION('ref_axis',(-1.,0.,0.));
#741=DIRECTION('',(-0.857167300702112,-1.04972719113862E-16,0.515038074910054));
#742=DIRECTION('center_axis',(0.,0.,1.));
#743=DIRECTION('ref_axis',(-1.,0.,0.));
#744=DIRECTION('center_axis',(0.,0.,1.));
#745=DIRECTION('ref_axis',(-1.,0.,0.));
#746=DIRECTION('',(0.,0.,1.));
#747=DIRECTION('center_axis',(0.,0.,1.));
#748=DIRECTION('ref_axis',(1.,0.,0.));
#749=DIRECTION('center_axis',(0.,0.,1.));
#750=DIRECTION('ref_axis',(1.,0.,0.));
#751=DIRECTION('',(0.,0.,1.));
#752=DIRECTION('center_axis',(0.,0.,-1.));
#753=DIRECTION('ref_axis',(1.,0.,0.));
#754=DIRECTION('center_axis',(0.,0.,-1.));
#755=DIRECTION('ref_axis',(1.,0.,0.));
#756=DIRECTION('',(0.,0.,1.));
#757=DIRECTION('center_axis',(0.,0.,1.));
#758=DIRECTION('ref_axis',(1.,0.,0.));
#759=DIRECTION('center_axis',(0.,0.,1.));
#760=DIRECTION('ref_axis',(1.,0.,0.));
#761=DIRECTION('center_axis',(0.,0.,-1.));
#762=DIRECTION('ref_axis',(1.,0.,0.));
#763=DIRECTION('center_axis',(0.,0.,-1.));
#764=DIRECTION('ref_axis',(1.,0.,0.));
#765=DIRECTION('',(0.,0.,1.));
#766=DIRECTION('center_axis',(0.,0.,1.));
#767=DIRECTION('ref_axis',(1.,0.,0.));
#768=DIRECTION('center_axis',(0.,0.,1.));
#769=DIRECTION('ref_axis',(1.,0.,0.));
#770=DIRECTION('center_axis',(0.,0.,-1.));
#771=DIRECTION('ref_axis',(1.,0.,0.));
#772=DIRECTION('center_axis',(0.,0.,-1.));
#773=DIRECTION('ref_axis',(1.,0.,0.));
#774=DIRECTION('',(0.,0.,1.));
#775=DIRECTION('center_axis',(0.,0.,1.));
#776=DIRECTION('ref_axis',(1.,0.,0.));
#777=DIRECTION('center_axis',(0.,0.,1.));
#778=DIRECTION('ref_axis',(1.,0.,0.));
#779=DIRECTION('center_axis',(0.,0.,-1.));
#780=DIRECTION('ref_axis',(1.,0.,0.));
#781=DIRECTION('center_axis',(0.,0.,-1.));
#782=DIRECTION('ref_axis',(1.,0.,0.));
#783=DIRECTION('',(0.,0.,1.));
#784=DIRECTION('center_axis',(0.,0.,1.));
#785=DIRECTION('ref_axis',(1.,0.,0.));
#786=DIRECTION('center_axis',(0.,0.,1.));
#787=DIRECTION('ref_axis',(1.,0.,0.));
#788=DIRECTION('center_axis',(1.,0.,0.));
#789=DIRECTION('ref_axis',(0.,1.,0.));
#790=DIRECTION('',(0.,0.,1.));
#791=DIRECTION('',(0.,1.,0.));
#792=DIRECTION('center_axis',(0.,1.,0.));
#793=DIRECTION('ref_axis',(-1.,0.,0.));
#794=DIRECTION('',(-1.,0.,0.));
#795=DIRECTION('center_axis',(0.,1.,0.));
#796=DIRECTION('ref_axis',(-1.,0.,0.));
#797=DIRECTION('',(-1.,0.,0.));
#798=DIRECTION('',(0.,0.,1.));
#799=DIRECTION('',(0.,0.,1.));
#800=DIRECTION('center_axis',(1.,0.,0.));
#801=DIRECTION('ref_axis',(0.,1.,0.));
#802=DIRECTION('',(0.,1.,0.));
#803=DIRECTION('',(0.,0.,1.));
#804=DIRECTION('center_axis',(-3.73513686184191E-34,-1.,0.));
#805=DIRECTION('ref_axis',(1.,-3.73513686184191E-34,0.));
#806=DIRECTION('',(1.,-3.73513686184191E-34,0.));
#807=DIRECTION('',(0.,0.,1.));
#808=DIRECTION('center_axis',(-1.,0.,0.));
#809=DIRECTION('ref_axis',(0.,-1.,0.));
#810=DIRECTION('',(0.,-1.,0.));
#811=DIRECTION('center_axis',(0.,0.,1.));
#812=DIRECTION('ref_axis',(1.,0.,0.));
#813=CARTESIAN_POINT('',(0.,0.,0.));
#814=CARTESIAN_POINT('Origin',(42.1243562410047,38.9999992303455,2.));
#815=CARTESIAN_POINT('',(43.6243562410047,38.9999992303455,0.));
#816=CARTESIAN_POINT('Origin',(42.1243562410047,38.9999992303455,0.));
#817=CARTESIAN_POINT('',(43.6243562410047,38.9999992303455,3.));
#818=CARTESIAN_POINT('',(43.6243562410047,38.9999992303455,2.));
#819=CARTESIAN_POINT('Origin',(42.1243562410047,38.9999992303455,3.));
#820=CARTESIAN_POINT('Origin',(30.0000003725291,60.0000008940698,2.));
#821=CARTESIAN_POINT('',(31.5000003725291,60.0000008940698,0.));
#822=CARTESIAN_POINT('Origin',(30.0000003725291,60.0000008940698,0.));
#823=CARTESIAN_POINT('',(31.5000003725291,60.0000008940698,3.));
#824=CARTESIAN_POINT('',(31.5000003725291,60.0000008940698,2.));
#825=CARTESIAN_POINT('Origin',(30.0000003725291,60.0000008940698,3.));
#826=CARTESIAN_POINT('Origin',(17.8756433864662,38.9999998755848,2.));
#827=CARTESIAN_POINT('',(19.3756433864662,38.9999998755848,0.));
#828=CARTESIAN_POINT('Origin',(17.8756433864662,38.9999998755848,0.));
#829=CARTESIAN_POINT('',(19.3756433864662,38.9999998755848,3.));
#830=CARTESIAN_POINT('',(19.3756433864662,38.9999998755848,2.));
#831=CARTESIAN_POINT('Origin',(17.8756433864662,38.9999998755848,3.));
#832=CARTESIAN_POINT('Origin',(73.75,72.5,2.));
#833=CARTESIAN_POINT('',(152.,72.5,3.));
#834=CARTESIAN_POINT('',(64.,72.5,3.));
#835=CARTESIAN_POINT('',(73.75,72.5,3.));
#836=CARTESIAN_POINT('',(65.,71.5,2.));
#837=CARTESIAN_POINT('Origin',(64.,72.5,2.));
#838=CARTESIAN_POINT('',(151.,71.5,2.));
#839=CARTESIAN_POINT('',(73.75,71.5,2.));
#840=CARTESIAN_POINT('Origin',(152.,72.5,2.));
#841=CARTESIAN_POINT('Origin',(64.,32.75,2.));
#842=CARTESIAN_POINT('',(64.,18.5,3.));
#843=CARTESIAN_POINT('',(64.,32.75,3.));
#844=CARTESIAN_POINT('',(65.,19.5,2.));
#845=CARTESIAN_POINT('Origin',(64.,18.5,2.));
#846=CARTESIAN_POINT('',(65.,32.75,2.));
#847=CARTESIAN_POINT('Origin',(116.75,18.5,2.));
#848=CARTESIAN_POINT('',(152.,18.5,3.));
#849=CARTESIAN_POINT('',(116.75,18.5,3.));
#850=CARTESIAN_POINT('',(151.,19.5,2.));
#851=CARTESIAN_POINT('Origin',(152.,18.5,2.));
#852=CARTESIAN_POINT('',(116.75,19.5,2.));
#853=CARTESIAN_POINT('Origin',(152.,58.75,2.));
#854=CARTESIAN_POINT('',(151.,58.75,2.));
#855=CARTESIAN_POINT('',(152.,58.75,3.));
#856=CARTESIAN_POINT('Origin',(151.,71.5,0.));
#857=CARTESIAN_POINT('',(151.,71.5,0.));
#858=CARTESIAN_POINT('',(151.,71.5,0.));
#859=CARTESIAN_POINT('',(151.,19.5,0.));
#860=CARTESIAN_POINT('',(151.,71.5,0.));
#861=CARTESIAN_POINT('',(151.,19.5,0.));
#862=CARTESIAN_POINT('Origin',(65.,71.5,0.));
#863=CARTESIAN_POINT('',(65.,71.5,0.));
#864=CARTESIAN_POINT('',(65.,71.5,0.));
#865=CARTESIAN_POINT('',(65.,71.5,0.));
#866=CARTESIAN_POINT('Origin',(82.5,46.,3.));
#867=CARTESIAN_POINT('',(0.,92.,3.));
#868=CARTESIAN_POINT('',(0.,0.,3.));
#869=CARTESIAN_POINT('',(0.,92.,3.));
#870=CARTESIAN_POINT('',(165.,0.,3.));
#871=CARTESIAN_POINT('',(0.,0.,3.));
#872=CARTESIAN_POINT('',(165.,92.,3.));
#873=CARTESIAN_POINT('',(165.,-6.16297582203915E-32,3.));
#874=CARTESIAN_POINT('',(165.,92.,3.));
#875=CARTESIAN_POINT('',(20.,46.,3.));
#876=CARTESIAN_POINT('Origin',(30.,46.,3.));
#877=CARTESIAN_POINT('Origin',(60.5610411772372,82.5150476712469,-0.549354535729329));
#878=CARTESIAN_POINT('',(62.0610411772372,82.5150476712469,-1.));
#879=CARTESIAN_POINT('Origin',(60.5610411772372,82.5150476712469,-1.));
#880=CARTESIAN_POINT('',(60.5610411772372,82.5150476712469,-0.0987090714586591));
#881=CARTESIAN_POINT('',(61.3110411772372,82.5150476712469,-0.549354535729329));
#882=CARTESIAN_POINT('Origin',(60.5610411772372,82.5150476712469,-3.));
#883=CARTESIAN_POINT('',(62.0610411772372,82.5150476712469,-5.));
#884=CARTESIAN_POINT('Origin',(60.5610411772372,82.5150476712469,-5.));
#885=CARTESIAN_POINT('',(62.0610411772372,82.5150476712469,-3.));
#886=CARTESIAN_POINT('Origin',(147.637107792271,82.5150578627231,-0.549354535729329));
#887=CARTESIAN_POINT('',(149.137107792271,82.5150578627231,-1.));
#888=CARTESIAN_POINT('Origin',(147.637107792271,82.5150578627231,-1.));
#889=CARTESIAN_POINT('',(147.637107792271,82.5150578627231,-0.0987090714586591));
#890=CARTESIAN_POINT('',(148.387107792271,82.5150578627231,-0.549354535729329));
#891=CARTESIAN_POINT('Origin',(147.637107792271,82.5150578627231,-3.));
#892=CARTESIAN_POINT('',(149.137107792271,82.5150578627231,-5.));
#893=CARTESIAN_POINT('Origin',(147.637107792271,82.5150578627231,-5.));
#894=CARTESIAN_POINT('',(149.137107792271,82.5150578627231,-3.));
#895=CARTESIAN_POINT('Origin',(147.698323564161,12.5677095218792,-0.549354535729329));
#896=CARTESIAN_POINT('',(149.198323564161,12.5677095218792,-1.));
#897=CARTESIAN_POINT('Origin',(147.698323564161,12.5677095218792,-1.));
#898=CARTESIAN_POINT('',(147.698323564161,12.5677095218792,-0.0987090714586591));
#899=CARTESIAN_POINT('',(148.448323564161,12.5677095218792,-0.549354535729329));
#900=CARTESIAN_POINT('Origin',(147.698323564161,12.5677095218792,-3.));
#901=CARTESIAN_POINT('',(149.198323564161,12.5677095218792,-5.));
#902=CARTESIAN_POINT('Origin',(147.698323564161,12.5677095218792,-5.));
#903=CARTESIAN_POINT('',(149.198323564161,12.5677095218792,-3.));
#904=CARTESIAN_POINT('Origin',(60.7,12.5,-0.549354535729329));
#905=CARTESIAN_POINT('',(62.2,12.5,-1.));
#906=CARTESIAN_POINT('Origin',(60.7,12.5,-1.));
#907=CARTESIAN_POINT('',(60.7,12.5,-0.0987090714586591));
#908=CARTESIAN_POINT('',(61.45,12.5,-0.549354535729329));
#909=CARTESIAN_POINT('Origin',(60.7,12.5,-3.));
#910=CARTESIAN_POINT('',(62.2,12.5,-5.));
#911=CARTESIAN_POINT('Origin',(60.7,12.5,-5.));
#912=CARTESIAN_POINT('',(62.2,12.5,-3.));
#913=CARTESIAN_POINT('Origin',(30.,46.,0.));
#914=CARTESIAN_POINT('',(20.,46.,0.));
#915=CARTESIAN_POINT('Origin',(30.,46.,0.));
#916=CARTESIAN_POINT('',(20.,46.,0.));
#917=CARTESIAN_POINT('Origin',(147.7,12.5,0.));
#918=CARTESIAN_POINT('',(144.7,12.5,-5.));
#919=CARTESIAN_POINT('Origin',(147.7,12.5,-5.));
#920=CARTESIAN_POINT('',(144.7,12.5,0.));
#921=CARTESIAN_POINT('',(144.7,12.5,0.));
#922=CARTESIAN_POINT('Origin',(147.7,12.5,0.));
#923=CARTESIAN_POINT('Origin',(147.7,12.5,-5.));
#924=CARTESIAN_POINT('Origin',(60.7,12.5,0.));
#925=CARTESIAN_POINT('',(57.7,12.5,-5.));
#926=CARTESIAN_POINT('Origin',(60.7,12.5,-5.));
#927=CARTESIAN_POINT('',(57.7,12.5,0.));
#928=CARTESIAN_POINT('',(57.7,12.5,0.));
#929=CARTESIAN_POINT('Origin',(60.7,12.5,0.));
#930=CARTESIAN_POINT('Origin',(60.7,12.5,-5.));
#931=CARTESIAN_POINT('Origin',(147.7,82.5,0.));
#932=CARTESIAN_POINT('',(144.7,82.5,-5.));
#933=CARTESIAN_POINT('Origin',(147.7,82.5,-5.));
#934=CARTESIAN_POINT('',(144.7,82.5,0.));
#935=CARTESIAN_POINT('',(144.7,82.5,0.));
#936=CARTESIAN_POINT('Origin',(147.7,82.5,0.));
#937=CARTESIAN_POINT('Origin',(147.7,82.5,-5.));
#938=CARTESIAN_POINT('Origin',(60.7,82.5,0.));
#939=CARTESIAN_POINT('',(57.7,82.5,-5.));
#940=CARTESIAN_POINT('Origin',(60.7,82.5,-5.));
#941=CARTESIAN_POINT('',(57.7,82.5,0.));
#942=CARTESIAN_POINT('',(57.7,82.5,0.));
#943=CARTESIAN_POINT('Origin',(60.7,82.5,0.));
#944=CARTESIAN_POINT('Origin',(60.7,82.5,-5.));
#945=CARTESIAN_POINT('Origin',(65.,19.5,0.));
#946=CARTESIAN_POINT('',(65.,19.5,0.));
#947=CARTESIAN_POINT('',(65.,19.5,0.));
#948=CARTESIAN_POINT('',(65.,19.5,0.));
#949=CARTESIAN_POINT('Origin',(151.,19.5,0.));
#950=CARTESIAN_POINT('',(151.,19.5,0.));
#951=CARTESIAN_POINT('Origin',(165.,92.,0.));
#952=CARTESIAN_POINT('',(165.,92.,0.));
#953=CARTESIAN_POINT('',(0.,92.,0.));
#954=CARTESIAN_POINT('',(165.,92.,0.));
#955=CARTESIAN_POINT('',(0.,92.,0.));
#956=CARTESIAN_POINT('',(165.,92.,0.));
#957=CARTESIAN_POINT('Origin',(165.,-6.16297582203915E-32,0.));
#958=CARTESIAN_POINT('',(165.,-6.16297582203915E-32,0.));
#959=CARTESIAN_POINT('',(165.,-6.16297582203915E-32,0.));
#960=CARTESIAN_POINT('',(165.,-6.16297582203915E-32,0.));
#961=CARTESIAN_POINT('Origin',(0.,0.,0.));
#962=CARTESIAN_POINT('',(0.,0.,0.));
#963=CARTESIAN_POINT('',(0.,0.,0.));
#964=CARTESIAN_POINT('',(0.,0.,0.));
#965=CARTESIAN_POINT('Origin',(0.,92.,0.));
#966=CARTESIAN_POINT('',(0.,92.,0.));
#967=CARTESIAN_POINT('Origin',(82.5,46.,0.));
#968=UNCERTAINTY_MEASURE_WITH_UNIT(LENGTH_MEASURE(0.01),#972,
'DISTANCE_ACCURACY_VALUE',
'Maximum model space distance between geometric entities at asserted c
onnectivities');
#969=UNCERTAINTY_MEASURE_WITH_UNIT(LENGTH_MEASURE(0.01),#972,
'DISTANCE_ACCURACY_VALUE',
'Maximum model space distance between geometric entities at asserted c
onnectivities');
#970=(
GEOMETRIC_REPRESENTATION_CONTEXT(3)
GLOBAL_UNCERTAINTY_ASSIGNED_CONTEXT((#968))
GLOBAL_UNIT_ASSIGNED_CONTEXT((#972,#974,#975))
REPRESENTATION_CONTEXT('','3D')
);
#971=(
GEOMETRIC_REPRESENTATION_CONTEXT(3)
GLOBAL_UNCERTAINTY_ASSIGNED_CONTEXT((#969))
GLOBAL_UNIT_ASSIGNED_CONTEXT((#972,#974,#975))
REPRESENTATION_CONTEXT('','3D')
);
#972=(
LENGTH_UNIT()
NAMED_UNIT(*)
SI_UNIT(.MILLI.,.METRE.)
);
#973=(
LENGTH_UNIT()
NAMED_UNIT(*)
SI_UNIT($,.METRE.)
);
#974=(
NAMED_UNIT(*)
PLANE_ANGLE_UNIT()
SI_UNIT($,.RADIAN.)
);
#975=(
NAMED_UNIT(*)
SI_UNIT($,.STERADIAN.)
SOLID_ANGLE_UNIT()
);
#976=SHAPE_DEFINITION_REPRESENTATION(#977,#978);
#977=PRODUCT_DEFINITION_SHAPE('',$,#980);
#978=SHAPE_REPRESENTATION('',(#580),#970);
#979=PRODUCT_DEFINITION_CONTEXT('part definition',#984,'design');
#980=PRODUCT_DEFINITION('2026-05-03-18-31-55-483','Aether pad',#981,#979);
#981=PRODUCT_DEFINITION_FORMATION('',$,#986);
#982=PRODUCT_RELATED_PRODUCT_CATEGORY('Aether pad','Aether pad',(#986));
#983=APPLICATION_PROTOCOL_DEFINITION('international standard',
'automotive_design',2009,#984);
#984=APPLICATION_CONTEXT(
'Core Data for Automotive Mechanical Design Process');
#985=PRODUCT_CONTEXT('part definition',#984,'mechanical');
#986=PRODUCT('2026-05-03-18-31-55-483','Aether pad',$,(#985));
#987=PRESENTATION_STYLE_ASSIGNMENT((#988));
#988=SURFACE_STYLE_USAGE(.BOTH.,#989);
#989=SURFACE_SIDE_STYLE('',(#990));
#990=SURFACE_STYLE_FILL_AREA(#991);
#991=FILL_AREA_STYLE('Steel - Satin',(#992));
#992=FILL_AREA_STYLE_COLOUR('Steel - Satin',#993);
#993=COLOUR_RGB('Steel - Satin',0.627450980392157,0.627450980392157,0.627450980392157);
ENDSEC;
END-ISO-10303-21;
